<svg width="1701" height="350" viewBox="0 0 1701 350" fill="none" xmlns="http://www.w3.org/2000/svg">
<path d="M482 271V80.25H537.5C569.667 80.25 594.333 88.5 611.5 105C628.667 121.5 637.25 145.083 637.25 175.75C637.25 206.25 628.583 229.75 611.25 246.25C594.083 262.75 569.5 271 537.5 271H482ZM537 238.75C557.333 238.75 573.083 233.917 584.25 224.25C595.583 214.417 601.25 198.25 601.25 175.75C601.25 154.417 595.583 138.583 584.25 128.25C572.917 117.75 557.25 112.5 537.25 112.5H518V238.75H537ZM727.885 273.75C713.718 273.75 701.218 270.667 690.385 264.5C679.551 258.333 671.135 249.833 665.135 239C659.301 228 656.385 215.583 656.385 201.75C656.385 188.917 658.968 176.917 664.135 165.75C669.468 154.417 677.385 145.25 687.885 138.25C698.551 131.25 711.551 127.75 726.885 127.75C739.551 127.75 751.218 130.417 761.885 135.75C772.551 140.917 781.135 149 787.635 160C794.135 170.833 797.385 184.333 797.385 200.5V207.75H691.385C691.885 213.583 693.635 219.083 696.635 224.25C699.968 230.75 704.385 235.833 709.885 239.5C715.551 243 721.968 244.75 729.135 244.75C736.801 244.75 743.385 242.833 748.885 239C754.385 235 758.301 229.917 760.635 223.75H795.135C790.635 238.583 782.718 250.667 771.385 260C760.051 269.167 745.551 273.75 727.885 273.75ZM762.885 182.5C762.218 177.167 760.468 172.833 757.635 169.5C754.468 164.667 750.301 161 745.135 158.5C739.968 155.833 734.218 154.5 727.885 154.5C721.551 154.5 715.801 155.75 710.635 158.25C705.635 160.75 701.551 164.5 698.385 169.5C695.385 173.167 693.551 177.5 692.885 182.5H762.885ZM862.547 273.75C848.88 273.75 837.797 270.167 829.297 263C820.797 255.667 816.547 245.5 816.547 232.5C816.547 218.5 821.88 207.833 832.547 200.5C840.214 195.167 851.13 191.167 865.297 188.5L907.047 180.75C906.714 172.083 904.464 165.5 900.297 161C896.13 156.5 889.88 154.25 881.547 154.25C875.047 154.25 869.297 156.167 864.297 160C859.464 163.833 856.464 169 855.297 175.5H821.797C824.13 160 830.964 148.167 842.297 140C853.63 131.833 866.797 127.75 881.797 127.75C890.297 127.75 898.214 129 905.547 131.5C912.88 133.833 919.13 137.333 924.297 142C929.464 146.5 933.214 151.75 935.547 157.75C937.88 163.75 939.297 169.75 939.797 175.75C940.464 181.75 940.797 189.167 940.797 198V271H907.047V252C903.547 258.167 899.297 262.833 894.297 266C886.464 271.167 875.88 273.75 862.547 273.75ZM870.797 247.25C877.464 247.25 883.464 245.917 888.797 243.25C895.797 239.75 900.63 235.083 903.297 229.25C905.964 223.417 907.464 215.5 907.797 205.5L874.297 212.25C865.297 213.917 858.797 216.583 854.797 220.25C851.797 223.25 850.297 226.917 850.297 231.25C850.297 236.417 852.13 240.417 855.797 243.25C859.63 245.917 864.63 247.25 870.797 247.25ZM1001.75 271C991.085 271 983.002 268.583 977.502 263.75C972.002 258.75 969.252 250.917 969.252 240.25V80.25H1003V230.25C1003 234.917 1003.84 238.25 1005.5 240.25C1007.34 242.083 1010.34 243 1014.5 243H1023.5V271H1001.75ZM1046.94 271V80.25H1129.19C1147.86 80.25 1162.61 84.9167 1173.44 94.25C1184.27 103.417 1189.69 117.5 1189.69 136.5C1189.69 148.5 1187.11 158.917 1181.94 167.75C1176.94 176.417 1169.86 183.083 1160.69 187.75C1151.69 192.417 1141.19 194.75 1129.19 194.75H1082.94V271H1046.94ZM1124.19 163.25C1133.86 163.25 1141.19 161.083 1146.19 156.75C1151.36 152.417 1153.94 146.083 1153.94 137.75C1153.94 129.583 1151.36 123.333 1146.19 119C1141.02 114.667 1133.69 112.5 1124.19 112.5H1082.94V163.25H1124.19ZM1247.56 273.75C1233.89 273.75 1222.81 270.167 1214.31 263C1205.81 255.667 1201.56 245.5 1201.56 232.5C1201.56 218.5 1206.89 207.833 1217.56 200.5C1225.22 195.167 1236.14 191.167 1250.31 188.5L1292.06 180.75C1291.72 172.083 1289.47 165.5 1285.31 161C1281.14 156.5 1274.89 154.25 1266.56 154.25C1260.06 154.25 1254.31 156.167 1249.31 160C1244.47 163.833 1241.47 169 1240.31 175.5H1206.81C1209.14 160 1215.97 148.167 1227.31 140C1238.64 131.833 1251.81 127.75 1266.81 127.75C1275.31 127.75 1283.22 129 1290.56 131.5C1297.89 133.833 1304.14 137.333 1309.31 142C1314.47 146.5 1318.22 151.75 1320.56 157.75C1322.89 163.75 1324.31 169.75 1324.81 175.75C1325.47 181.75 1325.81 189.167 1325.81 198V271H1292.06V252C1288.56 258.167 1284.31 262.833 1279.31 266C1271.47 271.167 1260.89 273.75 1247.56 273.75ZM1255.81 247.25C1262.47 247.25 1268.47 245.917 1273.81 243.25C1280.81 239.75 1285.64 235.083 1288.31 229.25C1290.97 223.417 1292.47 215.5 1292.81 205.5L1259.31 212.25C1250.31 213.917 1243.81 216.583 1239.81 220.25C1236.81 223.25 1235.31 226.917 1235.31 231.25C1235.31 236.417 1237.14 240.417 1240.81 243.25C1244.64 245.917 1249.64 247.25 1255.81 247.25ZM1419.26 324.25C1402.6 324.25 1388.26 320.75 1376.26 313.75C1364.43 306.917 1357.1 295.167 1354.26 278.5H1388.26C1390.43 285.333 1394.01 290.25 1399.01 293.25C1404.01 296.417 1410.68 298 1419.01 298C1430.01 298 1438.18 295.5 1443.51 290.5C1448.85 285.5 1451.51 278.667 1451.51 270V250.25C1446.01 257.917 1440.1 263.25 1433.76 266.25C1427.6 269.25 1420.18 270.75 1411.51 270.75C1399.51 270.75 1388.85 267.75 1379.51 261.75C1370.18 255.583 1362.93 247.083 1357.76 236.25C1352.6 225.417 1350.01 213.25 1350.01 199.75C1350.01 185.917 1352.6 173.583 1357.76 162.75C1362.93 151.75 1370.18 143.167 1379.51 137C1388.85 130.833 1399.51 127.75 1411.51 127.75C1420.18 127.75 1427.6 129.333 1433.76 132.5C1440.1 135.5 1446.01 140.833 1451.51 148.5V130.75H1485.26V262C1485.26 284.5 1479.35 300.5 1467.51 310C1455.85 319.5 1439.76 324.25 1419.26 324.25ZM1419.51 241.75C1426.51 241.75 1432.76 239.917 1438.26 236.25C1443.76 232.583 1448.01 227.5 1451.01 221C1454.18 214.5 1455.76 207.25 1455.76 199.25C1455.76 191.25 1454.18 184 1451.01 177.5C1448.01 171 1443.76 165.917 1438.26 162.25C1432.76 158.583 1426.51 156.75 1419.51 156.75C1408.85 156.75 1400.26 160.833 1393.76 169C1387.26 177 1384.01 187.083 1384.01 199.25C1384.01 211.417 1387.26 221.583 1393.76 229.75C1400.26 237.75 1408.85 241.75 1419.51 241.75ZM1581.4 273.75C1567.23 273.75 1554.73 270.667 1543.9 264.5C1533.07 258.333 1524.65 249.833 1518.65 239C1512.82 228 1509.9 215.583 1509.9 201.75C1509.9 188.917 1512.48 176.917 1517.65 165.75C1522.98 154.417 1530.9 145.25 1541.4 138.25C1552.07 131.25 1565.07 127.75 1580.4 127.75C1593.07 127.75 1604.73 130.417 1615.4 135.75C1626.07 140.917 1634.65 149 1641.15 160C1647.65 170.833 1650.9 184.333 1650.9 200.5V207.75H1544.9C1545.4 213.583 1547.15 219.083 1550.15 224.25C1553.48 230.75 1557.9 235.833 1563.4 239.5C1569.07 243 1575.48 244.75 1582.65 244.75C1590.32 244.75 1596.9 242.833 1602.4 239C1607.9 235 1611.82 229.917 1614.15 223.75H1648.65C1644.15 238.583 1636.23 250.667 1624.9 260C1613.57 269.167 1599.07 273.75 1581.4 273.75ZM1616.4 182.5C1615.73 177.167 1613.98 172.833 1611.15 169.5C1607.98 164.667 1603.82 161 1598.65 158.5C1593.48 155.833 1587.73 154.5 1581.4 154.5C1575.07 154.5 1569.32 155.75 1564.15 158.25C1559.15 160.75 1555.07 164.5 1551.9 169.5C1548.9 173.167 1547.07 177.5 1546.4 182.5H1616.4Z" fill="black"/>
<rect width="350" height="350" fill="#90E0EF"/>
<ellipse cx="109.375" cy="223.125" rx="48.125" ry="48.125" fill="white"/>
<ellipse cx="240.625" cy="122.5" rx="48.125" ry="52.5" fill="#03045E"/>
<rect x="166.25" y="69.9999" width="17.5" height="201.25" fill="#0077B6"/>
</svg>